<?xml version="1.0" standalone="no"?>
<!DOCTYPE svg PUBLIC "-//W3C//DTD SVG 20010904//EN"
 "http://www.w3.org/TR/2001/REC-SVG-20010904/DTD/svg10.dtd">
<svg version="1.0" xmlns="http://www.w3.org/2000/svg"
 width="352.000000pt" height="352.000000pt" viewBox="0 0 352.000000 352.000000"
 preserveAspectRatio="xMidYMid meet">
<metadata>
Created by potrace 1.14, written by Peter Selinger 2001-2017
</metadata>
<g transform="translate(0.000000,352.000000) scale(0.100000,-0.100000)"
fill="#000000" stroke="none">
<path d="M730 3282 c-8 -3 -38 -27 -67 -55 l-52 -49 -1 -216 c0 -118 -3 -218
-5 -222 -3 -4 -24 -10 -48 -12 -47 -6 -137 -45 -150 -65 -4 -7 -13 -13 -20
-13 -13 -1 -75 -80 -94 -120 -27 -56 -32 -113 -32 -326 -1 -123 -1 -227 -2
-231 -1 -5 -1 -11 -1 -14 1 -8 2 -102 1 -119 0 -8 1 -43 2 -77 1 -35 0 -65 -3
-68 -3 -4 -2 -22 2 -41 4 -19 5 -36 1 -38 -4 -3 -4 -29 -1 -60 3 -30 3 -63 -1
-73 -3 -10 -5 -21 -2 -25 2 -4 4 -95 4 -203 0 -214 6 -252 59 -338 31 -52 122
-127 154 -127 8 0 17 -4 21 -9 5 -9 91 -27 108 -23 4 1 7 -99 7 -222 l0 -224
30 -25 c16 -14 30 -28 30 -31 0 -3 9 -15 21 -27 18 -18 73 -31 124 -30 143 4
140 3 198 61 l54 55 -1 218 c-2 189 0 217 14 218 18 1 472 1 483 0 4 -1 7 -88
7 -193 0 -106 -1 -205 0 -219 0 -18 17 -43 53 -80 50 -51 54 -53 108 -55 31 0
61 -4 68 -8 6 -4 11 -3 11 2 0 5 23 8 50 7 49 -3 52 -1 108 54 l59 56 -1 213
c-1 118 3 216 8 219 7 5 405 7 481 4 14 -1 15 -29 14 -218 l-1 -218 55 -56 56
-55 119 0 118 1 55 56 55 57 -1 211 c0 116 2 215 5 220 3 4 28 11 56 14 68 8
137 41 189 91 45 44 83 101 88 132 1 10 7 26 12 34 13 22 13 1394 0 1445 -13
49 -48 117 -69 134 -9 8 -16 20 -16 27 0 8 -7 14 -15 14 -8 0 -15 4 -15 10 0
16 -142 77 -185 79 -21 1 -42 4 -44 7 -3 3 -6 103 -6 222 l-1 217 -38 38 c-21
20 -40 37 -43 37 -3 0 -11 8 -18 17 -11 15 -31 18 -125 19 -81 0 -116 -3 -125
-13 -8 -7 -16 -13 -18 -13 -12 0 -77 -73 -83 -93 -4 -12 -7 -110 -7 -217 0
-107 -3 -200 -8 -205 -8 -11 -466 -14 -484 -3 -6 4 -9 86 -9 217 l2 211 -55
55 c-30 30 -58 56 -62 56 -3 1 -55 3 -115 4 l-109 2 -59 -56 -59 -56 0 -217
c1 -200 -1 -218 -17 -219 -104 -7 -482 -2 -485 6 -2 5 -2 104 -1 220 l2 209
-55 53 c-29 29 -57 54 -61 54 -28 5 -210 5 -222 1z m114 -142 c48 17 90 -20
73 -65 -4 -8 -3 -16 2 -19 4 -3 6 -20 4 -38 -5 -42 -5 -39 -2 -128 3 -92 -5
-120 -34 -121 -45 -4 -119 0 -124 5 -10 10 -8 276 2 276 7 0 7 3 0 8 -9 6 -10
16 -6 59 1 13 54 33 61 23 3 -4 14 -4 24 0z m1023 -16 c7 -10 12 -62 13 -137
2 -225 3 -223 -79 -222 -89 1 -88 -1 -86 190 1 90 4 167 8 171 24 24 125 22
144 -2z m959 5 c16 -13 16 -335 -1 -349 -18 -15 -120 -19 -138 -5 -12 8 -15
42 -15 170 1 88 5 168 9 177 13 25 114 30 145 7z m102 -539 c67 -1 125 -6 128
-11 3 -5 14 -9 24 -9 23 0 92 -72 103 -108 5 -15 10 -40 12 -57 2 -16 4 -32 5
-35 7 -17 4 -117 -4 -127 -5 -8 -5 -13 0 -13 5 0 9 -25 9 -55 0 -30 -4 -55 -8
-55 -5 0 -5 -6 0 -12 10 -17 11 -69 0 -90 -4 -10 -4 -18 0 -18 10 0 9 -92 -1
-108 -4 -7 -3 -12 1 -12 5 0 7 -26 6 -57 -4 -74 -4 -71 0 -121 2 -23 0 -48 -4
-54 -4 -7 -4 -19 1 -28 5 -9 5 -22 0 -30 -5 -8 -5 -21 0 -30 5 -9 5 -22 1 -29
-5 -7 -5 -28 -1 -47 4 -19 4 -34 -1 -34 -5 0 -4 -11 1 -25 6 -16 6 -25 -1 -25
-6 0 -6 -6 0 -18 5 -10 6 -24 1 -32 -5 -8 -5 -21 0 -30 5 -9 5 -22 0 -30 -5
-8 -5 -21 0 -30 5 -9 5 -22 0 -30 -5 -8 -6 -18 -3 -23 8 -13 11 -57 4 -57 -4
0 -5 -19 -4 -42 4 -66 -37 -141 -95 -175 -25 -15 -53 -29 -62 -31 -28 -7
-2364 -7 -2431 0 -37 4 -77 13 -90 20 -42 23 -89 82 -102 124 -9 32 -11 209
-10 711 3 704 3 703 14 703 4 0 11 9 14 21 10 30 58 76 98 92 23 10 77 15 163
16 70 1 130 3 131 5 3 3 1907 -1 2101 -4z m-2025 -1876 c17 -10 19 -26 21
-130 1 -65 -2 -127 -6 -136 -5 -10 -5 -18 0 -18 4 0 6 -15 4 -34 -5 -41 -27
-53 -96 -51 -36 1 -51 6 -59 21 -14 25 -16 318 -2 337 5 7 16 16 24 18 24 8
95 4 114 -7z m958 2 c9 -4 16 -12 16 -19 2 -29 3 -95 3 -124 0 -18 0 -39 1
-45 4 -54 -6 -159 -16 -168 -7 -5 -35 -12 -63 -14 -85 -7 -88 -1 -87 194 0
159 1 165 22 175 23 12 98 12 124 1z m962 -5 c13 -10 15 -40 15 -172 -1 -108
-5 -164 -13 -176 -8 -11 -29 -17 -66 -18 -84 -3 -86 0 -88 179 -1 84 2 164 7
177 9 22 15 24 70 24 33 -1 67 -7 75 -14z"/>
</g>
</svg>
